<?xml version="1.0" encoding="utf-8"?>
<!-- Generator: Adobe Illustrator 25.1.0, SVG Export Plug-In . SVG Version: 6.00 Build 0)  -->
<svg version="1.1" id="Layer_1" xmlns="http://www.w3.org/2000/svg" xmlns:xlink="http://www.w3.org/1999/xlink" x="0px" y="0px"
	 viewBox="0 0 655.1 501.5" style="enable-background:new 0 0 655.1 501.5;" xml:space="preserve">
<style type="text/css">
	.st0{fill-rule:evenodd;clip-rule:evenodd;fill:url(#SVGID_1_);}
	.st1{fill-rule:evenodd;clip-rule:evenodd;fill:url(#SVGID_2_);}
	.st2{fill-rule:evenodd;clip-rule:evenodd;}
	.st3{fill-rule:evenodd;clip-rule:evenodd;fill:#FFFFFF;}
	.st4{fill-rule:evenodd;clip-rule:evenodd;fill:#FCEAB6;}
	.st5{fill-rule:evenodd;clip-rule:evenodd;fill:#FF7C21;}
	.st6{fill-rule:evenodd;clip-rule:evenodd;fill:#FF610F;}
</style>
<g id="Logo">
	
		<linearGradient id="SVGID_1_" gradientUnits="userSpaceOnUse" x1="122.8" y1="276.6398" x2="122.8" y2="567.1398" gradientTransform="matrix(1 0 0 -1 0 597.6378)">
		<stop  offset="0" style="stop-color:#EAC52D"/>
		<stop  offset="0.33" style="stop-color:#EAC52D"/>
		<stop  offset="0.71" style="stop-color:#F1D145"/>
		<stop  offset="1" style="stop-color:#F3D346"/>
	</linearGradient>
	<path class="st0" d="M42.5,31h160.4c22.7,0,41.2,18.4,41.2,41.1v145.5c0,18.7-12.7,34.5-29.8,39.5l26.1,64.4l-109.3-62.7H42.5
		c-22.6,0-41.1-18.4-41.1-41.1V72.2C1.5,49.5,20,31,42.5,31z"/>
	
		<linearGradient id="SVGID_2_" gradientUnits="userSpaceOnUse" x1="388.9933" y1="95.4988" x2="388.9933" y2="603.5597" gradientTransform="matrix(1 0 0 -1 0 597.6378)">
		<stop  offset="0" style="stop-color:#FD4D07"/>
		<stop  offset="1" style="stop-color:#FD8F2F"/>
	</linearGradient>
	<path class="st1" d="M499.1,27.9L499.1,27.9c1.9,0,3.8,0,5.5,0c36.5,0,65.9-4.9,92.5-24.6c13.2-9.9,32.4,3.4,20.2,25.4
		c-8,14.3-19,25.8-32.1,34.7c7.3,0.9,14.6,2.8,21.6,5.9c24.7,10.3,41.8,31.4,48.3,55.5c-21.9,12.2-48.8,14.6-73.6,4.1
		c-3.2-1.4-6.3-2.9-9.3-4.7c0,91.2,0,182.4,0,273.5c0,26.6-10.7,32.3-31.8,32.3c-20.8,0-41.6,0-62.4,0c0,20,0,39.9,0,59.9
		c0,6.3-5.3,11.6-11.6,11.6c-7.8,0-15.6,0-23.4,0c-3.2,0-6.1-1.3-8.2-3.4c-2.1-2.1-3.4-5.1-3.4-8.2c0-4.2,0-8.5,0-12.7
		c0-14.5-12.9-14.5-12.9,0c0,4.2,0,8.5,0,12.7c0,6.3-5.3,11.6-11.8,11.6c-7.8,0-15.5,0-23.3,0c-6.5,0-11.6-5.3-11.6-11.6
		c0-49.8-88.9-50.4-88.9,0c0,6.3-5.3,11.6-11.8,11.6c-7.8,0-15.5,0-23.1,0c-3.3,0-6.1-1.3-8.2-3.4c-2.1-2.1-3.5-5.1-3.5-8.2
		c0-4.2,0-8.5,0-12.7c0-13.4-12.9-13.4-12.9,0c0,4.2,0,8.5,0,12.7c0,6.3-5.2,11.6-11.6,11.6c-7.8,0-15.5,0-23.4,0
		c-6.3,0-11.6-5.3-11.6-11.6c0-51.2,0-92.2,0-143.3c-21.6,8.7-26.1,22.6-26.4,40.7c19.4,17,18.3,49.8-6,73.3
		c-27.3-23.7-26.8-58.9-9.3-72.7c0.8-35,18.7-60.9,40.8-84.4l56.4,32.4c12.8,7.3,29-6.9,23.5-20.6l-20.2-50.1
		c8.5-5.9,15.4-13.9,19.6-23.3c1.4-3.2,2.6-6.2,3.4-9.2c1.3-4.8,2-9.9,2-15.2l0,0V72.2v-0.1c0-15.9-6.5-30.2-16.8-40.7
		c-8.6-8.6-19.7-14.5-32.3-16.3c0.1-13.3,13.9-19.4,24.1-11.8c26.6,19.9,59.8,24.6,92.2,24.6c1.9,0,3.6,0,5.5,0l0,0
		C388.5,27.9,443.9,27.9,499.1,27.9z"/>
	<path class="st2" d="M97.1,101.9c4.7,0,8.9,0,13.6,0c0,21.1,0,40.7,0,61.8c0.5,14.7-10.1,23.3-24.4,23.6
		c-13.5,0.4-24.3-6.9-25.6-24.6c4.7,0,9.4,0,14.1,0c0,9.9,6.8,13,11.9,12.6c5.3-0.6,10.2-4,10.5-11.2
		C97.1,143.4,97.1,122.6,97.1,101.9L97.1,101.9z M190.9,161.3v0.6c0,0.2,0,0.5,0,0.7c0.2,9-7.3,23.9-28.7,24.8
		c-14.9,0.9-30.5-8.2-30.5-24.3c4.9,0,9.9,0,14.8,0c0,0.2,0,0.6,0,0.9c1.4,7.1,5.8,11.7,15.2,12c9-0.8,15.2-4.5,15.7-12.3
		c-0.7-9.5-7.5-11.9-16.8-14c-18.2-4.8-29.5-9-28.8-27.3c1.4-12.8,11.2-21.4,26.3-21.9c8.5-0.4,13.4,0.9,18.3,3.1
		c8.8,4.1,12.9,11.2,13.5,19.6c-5.2,0-10.3,0-15.4,0c0-7.6-9.4-11.5-15.7-11.2c-8.8,0.8-13.2,5.1-12.8,12.7
		c-0.2,5.4,4.5,9.8,17,12.8C176.2,140.9,190.8,145,190.9,161.3z"/>
</g>
<g id="Layer_2_1_">
	<polygon class="st3" points="541.5,398.1 292.8,398.1 292.8,57.7 455.2,57.7 498.1,104.2 541.5,151.1 	"/>
	<g>
		<path class="st4" d="M541.5,398.1V284.6c-35.8-6-81.6-12.7-124.4-12.7c-47,0-85.9,7.3-124.3,14.5V398h248.7V398.1z"/>
	</g>
	<rect x="332.2" y="227.7" class="st4" width="169.9" height="14.8"/>
	<rect x="332.2" y="166" class="st4" width="169.6" height="14.7"/>
	<rect x="332.2" y="104.2" class="st4" width="115.8" height="14.7"/>
	<ellipse class="st5" cx="462.3" cy="172.5" rx="18.4" ry="23.8"/>
	<ellipse class="st5" cx="372" cy="172.5" rx="18.4" ry="23.8"/>
	<ellipse class="st6" cx="354.8" cy="335.2" rx="25.8" ry="34.3"/>
	<ellipse class="st6" cx="479.6" cy="335.2" rx="25.8" ry="34.3"/>
</g>
</svg>
