<?xml version="1.0" encoding="utf-8"?>
<!-- Generator: Adobe Illustrator 25.1.0, SVG Export Plug-In . SVG Version: 6.00 Build 0)  -->
<svg version="1.1" id="Logo" xmlns="http://www.w3.org/2000/svg" xmlns:xlink="http://www.w3.org/1999/xlink" x="0px" y="0px"
	 viewBox="0 0 1344 600" style="enable-background:new 0 0 1344 600;" xml:space="preserve">
<style type="text/css">
	.st0{fill:none;stroke:#FFFFFF;stroke-width:13;stroke-miterlimit:10;}
	.st1{fill:#FFFFFF;}
</style>
<circle class="st0" cx="448" cy="175" r="139.1"/>
<g>
	<g>
		<g>
			<path class="st1" d="M442.8,379.4v135.6H433v-136c-4.1-0.3-8.3-0.7-12.4-1.2V514v7.7v0.2c0,0,8.4,9.3,26.9,9.3s27.8-9.5,27.8-9.5
				V514V377.5c-9.3,1.3-18.7,2-28.1,2C445.8,379.5,444.3,379.4,442.8,379.4z"/>
			<path class="st1" d="M420.6,337.3v33.8c4.1,0.5,8.2,1,12.4,1.2v-19.2h9.8v19.6c10.9,0.2,21.8-0.4,32.5-1.9V337
				c-9.1,1.6-18.5,2.4-28.1,2.4C438.2,339.5,429.3,338.7,420.6,337.3z"/>
		</g>
	</g>
</g>
<g>
	<g>
		<g>
			<path class="st1" d="M276,419.6L160.4,118.9H79.7v410.3h57V199.7L249,495.9h54.1l67-177c-16.2-7.6-31-17.7-43.9-29.8
				C304.1,346.5,276,419.6,276,419.6z"/>
		</g>
	</g>
</g>
<g>
	<path class="st1" d="M385.9,218.6c-3.8-1.4-7-3.3-9.7-5.8s-4.7-5.5-6.2-9c-1.5-3.5-2.3-7.3-2.5-11.6l-0.1-0.7h17.2v0.5
		c0.2,2.5,0.8,4.8,1.9,6.8c1.1,2,2.6,3.6,4.6,4.8c2,1.2,4.4,1.7,7.3,1.7c4.8,0,8.4-1.4,10.9-4.2c2.5-2.8,3.7-6.9,3.7-12.3v-68.4
		h17.6v68.6c0,6.6-1.3,12.3-3.8,17c-2.5,4.7-6.2,8.4-10.9,10.9c-4.8,2.5-10.5,3.8-17.3,3.8C394,220.6,389.6,219.9,385.9,218.6z"/>
	<path class="st1" d="M463.5,217.2c-5.7-2.3-10.1-5.5-13.4-9.8c-3.3-4.2-5.1-9.3-5.5-15.2l-0.1-1h16.8l0.1,0.8
		c0.5,2.8,1.7,5.3,3.7,7.3c2,2.1,4.5,3.6,7.8,4.8c3.2,1.1,6.9,1.7,11,1.7c4.1,0,7.7-0.6,10.8-1.7c3-1.1,5.4-2.8,7-4.9
		s2.5-4.6,2.5-7.4v-0.1c0-3.7-1.4-6.6-4.1-8.8c-2.8-2.1-7.3-3.9-13.7-5.3l-10.6-2.2c-9.7-2-16.9-5.3-21.7-9.9
		c-4.8-4.6-7.2-10.5-7.2-17.9v-0.1c0-5.8,1.6-10.9,4.8-15.3c3.1-4.4,7.4-7.7,13-10.2c5.5-2.4,11.8-3.7,18.9-3.7
		c7.2,0,13.4,1.2,18.8,3.6c5.4,2.4,9.6,5.7,12.7,9.9s4.8,9.2,5.1,14.8l0.1,1.2h-16.8L503,147c-0.4-2.9-1.5-5.3-3.2-7.3
		c-1.7-2-4-3.6-6.8-4.7c-2.8-1.1-6.1-1.6-9.8-1.6c-3.8,0-7.1,0.6-9.9,1.7c-2.8,1.1-5,2.7-6.5,4.7c-1.5,2-2.3,4.3-2.3,7v0.1
		c0,3.5,1.4,6.3,4.2,8.4c2.8,2.2,7.2,3.9,13.1,5.1l10.6,2.2c6.9,1.4,12.5,3.3,16.8,5.7c4.3,2.4,7.5,5.4,9.6,9.1
		c2.1,3.6,3.1,8,3.1,13.1v0.1c0,6.1-1.5,11.4-4.6,15.9s-7.5,8-13.3,10.5c-5.8,2.5-12.7,3.7-20.7,3.7
		C475.7,220.6,469.1,219.5,463.5,217.2z"/>
</g>
</svg>
